<svg width="97" height="102" viewBox="0 0 97 102" fill="none" xmlns="http://www.w3.org/2000/svg">
<g filter="url(#filter0_d_11_495)">
<rect x="25" y="22" width="42" height="42" rx="12" fill="#D6FAFF"/>
</g>
<path d="M52.9219 47.9805H50.2036C48.4905 47.9805 47.0968 46.5868 47.0968 44.8738C47.0968 43.1608 48.4905 41.7671 50.2036 41.7671H52.9219C53.1366 41.7671 53.3103 41.5934 53.3103 41.3787V40.2137C53.3103 39.3993 52.6786 38.7371 51.8806 38.6728L49.6503 34.7773C49.4436 34.417 49.1099 34.1595 48.7105 34.0526C48.3131 33.9464 47.8974 34.0022 47.5417 34.2092L39.8962 38.6603H38.5534C37.6967 38.6603 37 39.357 37 40.2137V49.5338C37 50.3905 37.6966 51.0872 38.5534 51.0872H51.7569C52.6136 51.0872 53.3103 50.3906 53.3103 49.5338V48.3688C53.3103 48.1542 53.1366 47.9805 52.9219 47.9805ZM50.1319 37.1824L50.9781 38.6603H47.5933L50.1319 37.1824ZM41.4398 38.6603L47.9327 34.8805C48.1083 34.7777 48.3134 34.7504 48.5095 34.8027C48.7078 34.8558 48.8732 34.984 48.976 35.1634L48.9768 35.1648L42.9729 38.6603H41.4398Z" fill="#33B4C6"/>
<path d="M52.9217 42.5438H50.2033C48.9185 42.5438 47.8733 43.589 47.8733 44.8739C47.8733 46.1587 48.9185 47.2039 50.2033 47.2039H52.9217C53.5641 47.2039 54.0867 46.6813 54.0867 46.0389V43.7088C54.0867 43.0664 53.5641 42.5438 52.9217 42.5438ZM50.2033 45.6505C49.7752 45.6505 49.4267 45.302 49.4267 44.8739C49.4267 44.4457 49.7752 44.0972 50.2033 44.0972C50.6315 44.0972 50.98 44.4457 50.98 44.8739C50.98 45.302 50.6315 45.6505 50.2033 45.6505Z" fill="#33B4C6"/>
<defs>
<filter id="filter0_d_11_495" x="-5" y="0" width="102" height="102" filterUnits="userSpaceOnUse" color-interpolation-filters="sRGB">
<feFlood flood-opacity="0" result="BackgroundImageFix"/>
<feColorMatrix in="SourceAlpha" type="matrix" values="0 0 0 0 0 0 0 0 0 0 0 0 0 0 0 0 0 0 127 0" result="hardAlpha"/>
<feOffset dy="8"/>
<feGaussianBlur stdDeviation="15"/>
<feColorMatrix type="matrix" values="0 0 0 0 0 0 0 0 0 0 0 0 0 0 0 0 0 0 0.06 0"/>
<feBlend mode="normal" in2="BackgroundImageFix" result="effect1_dropShadow_11_495"/>
<feBlend mode="normal" in="SourceGraphic" in2="effect1_dropShadow_11_495" result="shape"/>
</filter>
</defs>
</svg>
